<svg xmlns="http://www.w3.org/2000/svg" width="30.113" height="30.103" viewBox="0 0 30.113 30.103">
  <g id="ic_menu_laudos" transform="translate(-3.356 -4.325)">
    <path id="Caminho_1999" data-name="Caminho 1999" d="M33.368,13.683a2.2,2.2,0,0,0-3.67-.911c-1.011.986-1.985,1.985-3.033,3.033V11.249c0-.175.1-.162.212-.187a3.4,3.4,0,0,0-.711-6.728q-9.7-.019-19.4,0A3.373,3.373,0,0,0,3.361,7.742q-.019,12.076,0,24.152c0,.437.175.6.612.6.674,0,1.361.012,2.035-.012.237-.012.287.062.275.287-.025.325,0,.649,0,.974,0,.549.137.687.7.687h19c.562,0,.7-.137.7-.7V22.258a.537.537,0,0,1,.162-.424c1.61-1.6,3.208-3.208,4.806-4.806.05-.05.075-.137.187-.125-.012.062-.012.125-.025.187a6.3,6.3,0,0,1-1.2,2.421c-.7.861-1.548,1.6-2.322,2.4-.162.162-.437.325-.449.5-.012.212.3.337.449.524.125.162.212.137.349,0,.711-.724,1.435-1.435,2.147-2.147a7.406,7.406,0,0,0,2.172-4.905.773.773,0,0,1,.137-.412A1.963,1.963,0,0,0,33.368,13.683Zm-5.005,1.785c.212-.212.337-.212.512.012a1.443,1.443,0,0,0,.3.225c-.087.1-.125.15-.162.187q-2.921,2.921-5.829,5.842c-.1.1-.15.125-.262.012-.424-.387-.424-.387-.025-.774C24.705,19.138,26.54,17.316,28.362,15.468Zm-9.611,9.911c-.125-.112-.1-.175,0-.287.974-.974,1.947-1.947,2.921-2.908.037-.037.087-.075.137-.125a.712.712,0,0,1,.137.137l1.46,1.46c.125.112.1.175,0,.287-.974.974-1.947,1.935-2.921,2.921-.112.112-.175.1-.287-.012C19.725,26.34,19.238,25.853,18.751,25.379Zm.749,2.172c-.612.3-1.236.624-1.86.936-.175.087-.212-.1-.312-.162-.25-.162-.25-.337-.112-.6.3-.537.562-1.086.824-1.635ZM9.178,5.32H26.091a2.43,2.43,0,0,1,.2,4.855c-.474.012-.949,0-1.423,0H9.165C10.488,8.4,10.5,7.268,9.178,5.32ZM6.269,8.84V31.208c0,.262-.05.362-.337.349a11.917,11.917,0,0,0-1.336,0c-.212.012-.287-.037-.287-.275.012-.774.012-1.535.012-2.309V7.879a2.433,2.433,0,0,1,2.1-2.534A2.394,2.394,0,0,1,9.1,7.268H7.83A1.452,1.452,0,0,0,6.269,8.84Zm2.846-.6a2.34,2.34,0,0,1-1.872,1.872c0-.474-.012-.949,0-1.423a.464.464,0,0,1,.512-.449C8.2,8.229,8.641,8.241,9.115,8.241ZM25.7,33.2c0,.25-.075.287-.3.287-5.954,0-11.92-.012-17.874,0-.25,0-.287-.075-.287-.3,0-7.239.012-14.491,0-21.731,0-.287.087-.312.337-.312q8.912.019,17.824,0c.237,0,.325.037.325.3-.012,1.685-.012,3.383,0,5.068a.569.569,0,0,1-.187.449c-.6.587-1.2,1.173-1.785,1.785a.558.558,0,0,1-.449.175q-6.89,0-13.78-.012c-.262,0-.337.062-.325.325.025.649.012.649.662.649H22.633c-.349.337-.637.624-.924.911-.1.1-.225.062-.349.062H9.552c-.275,0-.349.062-.337.337.025.637.012.637.649.637H20.686c-1,1-1.947,1.947-2.908,2.9a1.758,1.758,0,0,0-.337.462c-.424.861-.861,1.735-1.3,2.6a.553.553,0,0,0,.062.736c.125.112.037.175-.037.237-.275.275-.549.562-.836.836-.112.112-.1.175,0,.287.537.562.537.562,1.073.012.075-.075.162-.15.237-.237.175-.2.337-.424.637-.125.125.125.312.062.462-.012L20.586,28.1a1.356,1.356,0,0,0,.325-.275c1.6-1.6,3.183-3.2,4.781-4.793.087.075.05.175.05.262C25.691,26.615,25.691,29.91,25.7,33.2ZM30.21,17.128q-2.921,2.9-5.817,5.817l-.15.15a4.116,4.116,0,0,1-.462-.474c-.087-.112.075-.162.137-.225q2.865-2.865,5.729-5.742c.162-.162.262-.175.4.012a1.157,1.157,0,0,0,.175.175C30.322,16.916,30.334,16.991,30.21,17.128Zm2.01-2.047c-.337.387-.724.736-1.073,1.111-.087.087-.15.062-.225-.012-.5-.512-1.011-1.011-1.523-1.523-.087-.087-.075-.137.012-.225.362-.349.711-.711,1.073-1.061a1.2,1.2,0,0,1,.824-.287,1.178,1.178,0,0,1,1.061.711A1.109,1.109,0,0,1,32.219,15.081Z" transform="translate(0)" fill="#fff"/>
    <path id="Caminho_2000" data-name="Caminho 2000" d="M57.28,74.6H64.3c.225,0,.287.05.275.275-.012.7,0,.7-.7.7-4.518,0-9.049,0-13.568.012-.25,0-.325-.05-.312-.312.025-.662,0-.662.674-.662C52.874,74.6,55.071,74.6,57.28,74.6Z" transform="translate(-40.813 -61.503)" fill="#fff"/>
    <path id="Caminho_2001" data-name="Caminho 2001" d="M57.293,90.1H64.27c.225,0,.3.05.3.287-.012.687,0,.687-.687.687-4.518,0-9.049,0-13.568.012-.262,0-.337-.05-.325-.325.025-.649.012-.649.662-.649C52.862,90.1,55.083,90.1,57.293,90.1Z" transform="translate(-40.813 -75.069)" fill="#fff"/>
    <path id="Caminho_2002" data-name="Caminho 2002" d="M57.354,106.586H50.377c-.237,0-.3-.062-.287-.3.012-.674,0-.674.687-.674,4.518,0,9.049,0,13.568-.012.275,0,.337.062.325.325-.025.649-.012.649-.662.649C61.785,106.586,59.563,106.586,57.354,106.586Z" transform="translate(-40.899 -88.634)" fill="#fff"/>
    <path id="Caminho_2003" data-name="Caminho 2003" d="M57.28,214.6H64.3c.225,0,.287.05.275.275-.012.7,0,.7-.7.7-4.518,0-9.049,0-13.568.012-.25,0-.325-.05-.312-.312.025-.662,0-.662.674-.662C52.874,214.6,55.071,214.6,57.28,214.6Z" transform="translate(-40.813 -184.029)" fill="#fff"/>
    <path id="Caminho_2004" data-name="Caminho 2004" d="M52.584,199.974c-.811,0-1.623-.012-2.434,0-.2,0-.25-.05-.25-.25,0-.724,0-.724.736-.724H54.98c.225,0,.287.05.275.275-.012.7,0,.7-.7.7Z" transform="translate(-40.735 -170.376)" fill="#fff"/>
  </g>
</svg>
