<svg xmlns="http://www.w3.org/2000/svg" width="29.56" height="32.88" viewBox="0 0 29.56 32.88">
  <g id="ic_menu_usuarios" transform="translate(-25.7 -16.073)">
    <path id="Caminho_2010" data-name="Caminho 2010" d="M75.854,31.324a8.6,8.6,0,0,0,2.516.689,8.168,8.168,0,0,0,2.486-.12,8.016,8.016,0,0,0,6.261-6.53,9.55,9.55,0,0,0,.1-1.3,7.989,7.989,0,0,0-1.438-4.583,8.134,8.134,0,0,0-3.849-2.936,8,8,0,0,0-4.883-.165A7.891,7.891,0,0,0,73.1,18.938a8.008,8.008,0,0,0-1.842,4.553,7.853,7.853,0,0,0,1.123,4.7A7.99,7.99,0,0,0,75.854,31.324Zm-.659-2.1a.41.41,0,0,1,.075.06A.327.327,0,0,1,75.195,29.227ZM84.376,28.1a.41.41,0,0,1,.06-.075A.327.327,0,0,0,84.376,28.1Zm-1.123-9.181a.41.41,0,0,1-.075-.06C83.193,18.863,83.223,18.893,83.253,18.923Zm-9.181,1.123a.41.41,0,0,1-.06.075A.1.1,0,0,1,74.071,20.046Zm-1.333,3.145a7.653,7.653,0,0,1,.449-1.648,7.115,7.115,0,0,1,.464-.884c.09-.15.195-.3.3-.449.03-.03.045-.075.075-.1l.045-.045v-.015l.015-.015a.751.751,0,0,1,.1-.12,9.374,9.374,0,0,1,.764-.779c.06-.06.135-.1.195-.165.03-.015.045-.045.075-.06-.015.015-.03.015-.045.03.015-.015.045-.03.06-.045l.015-.015c.03-.03.075-.06.015-.015.135-.1.285-.195.419-.3a6.624,6.624,0,0,1,1.018-.539,7.653,7.653,0,0,1,1.648-.449,6.98,6.98,0,0,1,1.767,0,7.653,7.653,0,0,1,1.648.449,7.114,7.114,0,0,1,.884.464c.15.09.3.195.449.3.03.03.075.045.1.075l.045.045h.015l.015.015a.751.751,0,0,1,.12.1,9.371,9.371,0,0,1,.779.764c.06.06.1.135.165.195.015.03.045.045.06.075-.015-.015-.015-.03-.03-.045.015.015.03.045.045.06l.015.015c.03.03.06.075.015.015.1.135.195.285.3.419a6.624,6.624,0,0,1,.539,1.018,7.654,7.654,0,0,1,.449,1.648,8.756,8.756,0,0,1,.06.884,5.842,5.842,0,0,1-.06.884,7.654,7.654,0,0,1-.449,1.648,7.114,7.114,0,0,1-.464.884c-.09.15-.195.3-.3.449-.03.03-.045.075-.075.1l-.045.045V28.1l-.015.015a.75.75,0,0,1-.1.12,9.372,9.372,0,0,1-.764.779c-.06.06-.135.1-.195.165-.03.015-.045.045-.075.06.015-.015.03-.015.045-.03-.015.015-.045.03-.06.045l-.015.015c-.03.03-.075.06-.015.015-.135.1-.285.195-.419.3a6.623,6.623,0,0,1-1.018.539,7.652,7.652,0,0,1-1.648.449,6.98,6.98,0,0,1-1.767,0,7.653,7.653,0,0,1-1.648-.449,7.115,7.115,0,0,1-.884-.464c-.15-.09-.3-.195-.449-.3-.03-.03-.075-.045-.1-.075l-.045-.045H75.21l-.015-.015a.75.75,0,0,1-.12-.1,9.372,9.372,0,0,1-.779-.764c-.06-.06-.1-.135-.165-.195-.015-.03-.045-.045-.06-.075.015.015.015.03.03.045-.015-.015-.03-.045-.045-.06l-.015-.015c-.03-.03-.06-.075-.015-.015-.1-.135-.195-.285-.3-.419a6.624,6.624,0,0,1-.539-1.018,7.653,7.653,0,0,1-.449-1.648A6.98,6.98,0,0,1,72.738,23.191Z" transform="translate(-38.711 0)" fill="#fff"/>
    <path id="Caminho_2011" data-name="Caminho 2011" d="M151.03,104.015h0l.015-.015c-.015.015-.03.03-.045.03C151.015,104.03,151.015,104.015,151.03,104.015Z" transform="translate(-106.533 -74.758)" fill="#fff"/>
    <path id="Caminho_2012" data-name="Caminho 2012" d="M89.915,95.93h0l.015.015c-.015-.015-.03-.03-.03-.045C89.9,95.915,89.9,95.915,89.915,95.93Z" transform="translate(-54.584 -67.871)" fill="#fff"/>
    <path id="Caminho_2013" data-name="Caminho 2013" d="M159.115,42.815h0L159.1,42.8c.015.015.03.03.03.045A.052.052,0,0,0,159.115,42.815Z" transform="translate(-113.42 -22.724)" fill="#fff"/>
    <path id="Caminho_2014" data-name="Caminho 2014" d="M97.915,34.815h0l-.015.015c.015-.015.03-.03.045-.03C97.93,34.8,97.915,34.8,97.915,34.815Z" transform="translate(-61.386 -15.922)" fill="#fff"/>
    <path id="Caminho_2015" data-name="Caminho 2015" d="M195.015,176.115,195,176.1c.03.045.045.075.06.075s-.015-.03-.045-.06Z" transform="translate(-143.943 -136.059)" fill="#fff"/>
    <path id="Caminho_2016" data-name="Caminho 2016" d="M206.6,195.8c.075.18.03.045,0,0Z" transform="translate(-153.805 -152.808)" fill="#fff"/>
    <path id="Caminho_2017" data-name="Caminho 2017" d="M54.607,142.065a14.388,14.388,0,0,0-1.977-3.954,15.419,15.419,0,0,0-3.085-3.235A14.81,14.81,0,0,0,45.62,132.7a14.61,14.61,0,0,0-4.463-.9,14.767,14.767,0,0,0-4.583.509,14.781,14.781,0,0,0-7.369,4.718,14.917,14.917,0,0,0-3.445,8.3c-.03.359-.045.734-.06,1.108a.734.734,0,1,0,1.468,0c0-.374.03-.734.06-1.108.015-.18.03-.359.06-.539,0-.03.015-.075.015-.1.015-.09.03-.195.045-.285a14.117,14.117,0,0,1,.524-2.082l.18-.494.09-.225c.015-.045.03-.075.045-.12s.015-.045.03-.075c.03-.06,0-.015-.015.03a8.24,8.24,0,0,1,.419-.9,14.576,14.576,0,0,1,1.093-1.782c.045-.075.1-.135.15-.21a.326.326,0,0,1,.06-.075h0c.1-.135.225-.285.344-.419a8.506,8.506,0,0,1,.7-.764c.24-.24.494-.479.749-.7.135-.12.255-.225.389-.33.06-.06.135-.1.195-.165l.015-.015a.263.263,0,0,0,.075-.06,15.461,15.461,0,0,1,1.767-1.138c.315-.165.629-.329.959-.464.06-.03.135-.06.195-.09h0c.045-.015.09-.045.135-.06.165-.06.33-.135.494-.18a14.071,14.071,0,0,1,2.067-.569l.539-.09c.03,0,.06-.015.09-.015s.1-.015.135-.015.1-.015.15-.015c.374-.045.749-.06,1.108-.075a15.486,15.486,0,0,1,2.2.1c.015,0,.06.015.075.015h.045l.27.045c.18.03.359.06.554.1.344.075.689.165,1.033.255s.674.21,1,.33c.165.06.344.12.509.195.015,0-.165-.075-.09-.03a.055.055,0,0,0,.045.015c.045.015.075.03.12.045.09.045.165.075.255.12a14.37,14.37,0,0,1,1.812,1.018c.15.1.3.195.434.3.06.045.135.09.195.135.03.03.075.045.1.075a.015.015,0,0,1,.015.015c.27.21.524.419.779.659a13.735,13.735,0,0,1,1.438,1.513c.06.06.1.135.165.195l.045.045a.052.052,0,0,1-.015-.03c.015.015.03.03.03.045l.015.015c.015.03.045.06.03.045.09.12.18.255.27.374.21.285.389.584.569.884s.344.6.494.914c.075.15.15.315.225.464.03.075.075.165.1.24h0a.015.015,0,0,0-.015-.015c.015.045.03.075.045.12a13.423,13.423,0,0,1,.644,2.037c.09.344.15.7.21,1.048a1.311,1.311,0,0,1,.03.24h0c0,.045.015.1.015.15.015.18.045.359.045.539q.045.539.045,1.078a.734.734,0,0,0,1.468,0A13.273,13.273,0,0,0,54.607,142.065Zm-27.334,2.786Z" transform="translate(0 -98.385)" fill="#fff"/>
  </g>
</svg>
