<svg xmlns="http://www.w3.org/2000/svg" width="29.56" height="35.046" viewBox="0 0 29.56 35.046">
  <g id="ic_menu_solicitacoes" transform="translate(-30.4 -13.3)">
    <path id="Caminho_2005" data-name="Caminho 2005" d="M53.926,13.3a1.778,1.778,0,0,1,1.332,1.332,3.107,3.107,0,0,1,.047.549v2.774h2.962a1.689,1.689,0,0,1,1.693,1.661V39.631a4.346,4.346,0,0,1-1.442,3.307c-1.411,1.332-2.837,2.649-4.232,4a4.912,4.912,0,0,1-3.527,1.411H36.967a1.712,1.712,0,0,1-1.912-1.928V43.691H32.14a1.675,1.675,0,0,1-1.74-1.755V15.04a1.748,1.748,0,0,1,1.364-1.74ZM51.5,47.045v-.423c0-1.285-.016-2.57,0-3.871a2.3,2.3,0,0,1,2.429-2.414H58c.658,0,.658,0,.658-.658V19.9c0-.6-.11-.69-.705-.69H36.983c-.6,0-.705.11-.705.69V46.371c0,.611.094.69.69.69H50.822C51.042,47.076,51.246,47.045,51.5,47.045Zm2.523-29.09V15.306c0-.658-.078-.737-.721-.737H32.391c-.69,0-.752.063-.752.737V42a.4.4,0,0,0,.408.423c.972.016,1.959,0,2.978,0V19.851a1.7,1.7,0,0,1,1.912-1.912h16.63A4.11,4.11,0,0,0,54.02,17.955Zm4.044,23.651c-.188-.016-.266-.016-.345-.016H53.926a1.08,1.08,0,0,0-1.176,1.176v3.7l.094.047C54.568,44.9,56.277,43.283,58.064,41.606Z" transform="translate(0 0)" fill="#fff"/>
    <path id="Caminho_2006" data-name="Caminho 2006" d="M102.887,80.6h5.878a1.55,1.55,0,0,1,.47.063.574.574,0,0,1,.392.58.587.587,0,0,1-.408.58,1.169,1.169,0,0,1-.408.063H96.946a2.1,2.1,0,0,1-.313-.016.65.65,0,0,1-.533-.627.636.636,0,0,1,.549-.611,3.021,3.021,0,0,1,.376-.016C99,80.6,100.943,80.6,102.887,80.6Z" transform="translate(-55.403 -56.752)" fill="#fff"/>
    <path id="Caminho_2007" data-name="Caminho 2007" d="M102.973,135.8H96.955c-.533,0-.878-.408-.674-.831.078-.172.313-.3.486-.408a.984.984,0,0,1,.376-.016H108.8c.643,0,.94.2.94.643-.016.423-.3.627-.909.627C106.876,135.8,104.917,135.8,102.973,135.8Z" transform="translate(-55.505 -102.233)" fill="#fff"/>
    <path id="Caminho_2008" data-name="Caminho 2008" d="M103.052,107.6h6.019c.47,0,.784.3.721.705a.573.573,0,0,1-.533.533,2.54,2.54,0,0,1-.345.016H97.19c-.6,0-.909-.219-.893-.643.016-.408.3-.611.893-.611Z" transform="translate(-55.568 -79.52)" fill="#fff"/>
    <path id="Caminho_2009" data-name="Caminho 2009" d="M100.4,161.4h3.15a2.09,2.09,0,0,1,.439.047.574.574,0,0,1,.423.564.566.566,0,0,1-.408.611,1.416,1.416,0,0,1-.439.063H97.184c-.47-.016-.768-.251-.784-.627,0-.376.3-.643.768-.643h2.257C99.738,161.4,100.068,161.4,100.4,161.4Z" transform="translate(-55.656 -124.888)" fill="#fff"/>
  </g>
</svg>
