<svg xmlns="http://www.w3.org/2000/svg" width="25.075" height="27.012" viewBox="0 0 25.075 27.012">
  <g id="ic_menu_sair" transform="translate(-33.5 -27.7)">
    <path id="Caminho_2018" data-name="Caminho 2018" d="M38,54.712a11.047,11.047,0,0,1-1.164-.3,4.941,4.941,0,0,1-3.326-4.587c-.014-.735-.014-1.455-.014-2.19V32.856a4.945,4.945,0,0,1,2.12-4.227A4.8,4.8,0,0,1,38.5,27.7h7.1a.772.772,0,1,1,0,1.538H38.642a3.448,3.448,0,0,0-3.285,2.023,3.281,3.281,0,0,0-.319,1.455c0,5.655-.014,11.309,0,16.964a3.469,3.469,0,0,0,3.576,3.479c2.287.014,4.574,0,6.86,0a.774.774,0,0,1,.832.61.791.791,0,0,1-.5.887.191.191,0,0,0-.055.042C43.174,54.712,40.6,54.712,38,54.712Z" fill="#fff"/>
    <path id="Caminho_2019" data-name="Caminho 2019" d="M92.923,90.646H77.5a1.557,1.557,0,0,1-.443-.042.758.758,0,0,1,.069-1.483,2.1,2.1,0,0,1,.416-.028h15.4a2.2,2.2,0,0,0-.236-.249L89.459,85.6a.891.891,0,0,1-.319-.638.714.714,0,0,1,.416-.679.689.689,0,0,1,.79.055,1.686,1.686,0,0,1,.236.208l4.657,4.657a.816.816,0,0,1,0,1.358l-4.7,4.7a.8.8,0,0,1-.9.263.763.763,0,0,1-.346-1.192c.069-.083.139-.152.208-.236l3.188-3.188A1.8,1.8,0,0,1,92.923,90.646Z" transform="translate(-37.027 -48.657)" fill="#fff"/>
  </g>
</svg>
