<svg xmlns="http://www.w3.org/2000/svg" width="35.333" height="35.333" viewBox="0 0 35.333 35.333">
  <path id="ic_pdf" d="M34.8,3H13.6a3.544,3.544,0,0,0-3.533,3.533v21.2A3.544,3.544,0,0,0,13.6,31.266H34.8a3.544,3.544,0,0,0,3.533-3.533V6.533A3.544,3.544,0,0,0,34.8,3ZM19.783,16.25a2.646,2.646,0,0,1-2.65,2.65H15.367v3.533h-2.65v-10.6h4.417a2.646,2.646,0,0,1,2.65,2.65Zm8.833,3.533a2.646,2.646,0,0,1-2.65,2.65H21.55v-10.6h4.417a2.646,2.646,0,0,1,2.65,2.65Zm7.067-5.3h-2.65V16.25h2.65V18.9h-2.65v3.533h-2.65v-10.6h5.3ZM15.367,16.25h1.767V14.483H15.367ZM6.533,10.067H3V34.8a3.544,3.544,0,0,0,3.533,3.533H31.266V34.8H6.533ZM24.2,19.783h1.767v-5.3H24.2Z" transform="translate(-3 -3)" fill="#939fa7"/>
</svg>
