<svg id="ic_visualizar" xmlns="http://www.w3.org/2000/svg" width="54.103" height="34.778" viewBox="0 0 54.103 34.778">
  <g id="Icon_ionic-ios-eye" data-name="Icon ionic-ios-eye">
    <path id="Caminho_432" data-name="Caminho 432" d="M29.274,7.875c-9.709,0-17.365,6.11-26.518,16.1a1.909,1.909,0,0,0-.012,2.572c7.837,8.658,14.744,16.109,26.53,16.109,11.641,0,20.372-9.383,26.579-16.182a1.894,1.894,0,0,0,.06-2.5C49.586,16.3,40.831,7.875,29.274,7.875Zm.531,28.245A10.868,10.868,0,1,1,40.155,25.771,10.873,10.873,0,0,1,29.806,36.12Z" transform="translate(-2.252 -7.875)" fill="#f4f4f4"/>
    <path id="Caminho_433" data-name="Caminho 433" d="M21.228,15.553a5.674,5.674,0,0,1,.374-2.041c-.121,0-.242-.012-.374-.012a7.728,7.728,0,1,0,7.728,7.728c0-.157-.012-.314-.012-.471a5.355,5.355,0,0,1-2.2.471A5.606,5.606,0,0,1,21.228,15.553Z" transform="translate(5.819 -3.839)" fill="#f4f4f4"/>
  </g>
</svg>
