<svg xmlns="http://www.w3.org/2000/svg" width="384" height="174.908" viewBox="0 0 384 174.908">
  <g id="logo_login" transform="translate(-87.695 -110.5)">
    <g id="Grupo_23597" data-name="Grupo 23597" transform="translate(87.695 118.449)">
      <g id="Grupo_23596" data-name="Grupo 23596" transform="translate(0 0)">
        <text id="Virtual" transform="translate(3.945 124.943)" fill="#323e48" font-size="66" font-family="Swiss721BT-Bold, Swis721 BT" font-weight="700"><tspan x="0" y="0">Virtual</tspan></text>
        <text id="Perícia" transform="translate(0 63)" fill="#323e48" font-size="65" font-family="Swiss721BT-Bold, Swis721 BT" font-weight="700"><tspan x="0" y="0">Perícia</tspan></text>
      </g>
    </g>
    <g id="Grupo_23600" data-name="Grupo 23600" transform="translate(315.863 110.5)">
      <path id="Caminho_2087" data-name="Caminho 2087" d="M1192.848,199.8H1076.276a5.175,5.175,0,0,0-5.176,5.176V306.613a5.175,5.175,0,0,0,5.176,5.176h116.573a5.175,5.175,0,0,0,5.176-5.176V205A5.2,5.2,0,0,0,1192.848,199.8Z" transform="translate(-1056.904 -177.792)" fill="#323e48" fill-rule="evenodd"/>
      <path id="Caminho_2088" data-name="Caminho 2088" d="M1106.349,132.5l-.468.394c-23.413,18.928-63.807,76.228-72.581,123.991q72.235,18.817,146.122,0c-8.774-47.763-49.167-105.063-72.581-123.991Z" transform="translate(-1028.42 -127.078)" fill="#fff" fill-rule="evenodd"/>
      <path id="Caminho_2089" data-name="Caminho 2089" d="M1284.8,281.856l2.736-32.7h16.611l2.736,32.7Zm18.114-46.457h-14.122l1.75-19.987,10.746.123,1.626,19.864Zm-3.746-45.2h-6.6l-1.257,14.122h9.119Z" transform="translate(-1217.937 -170.558)" fill="#201d1e" fill-rule="evenodd"/>
      <path id="Caminho_2090" data-name="Caminho 2090" d="M1088.274,113.038l.468-.394,2.662-2.144,2.662,2.144.468.394h0c17.252,13.949,43.425,48.083,60.011,84.189a221.823,221.823,0,0,1,8.5,21.244,155.085,155.085,0,0,1,5.57,21.072v.049l.715,3.869-3.8.961a301.819,301.819,0,0,1-74.527,9.513v.025A290.968,290.968,0,0,1,1017.3,244.4l-3.8-.986.715-3.845c6.457-35.144,29.525-75.168,50.819-101.982,4.141-5.225,8.232-9.957,12.15-14.073a113.286,113.286,0,0,1,11.09-10.474Zm3.155,8.355c-2.539,2.218-5.274,4.855-8.133,7.887-3.722,3.919-7.64,8.478-11.657,13.53-19.84,24.99-41.256,61.687-48.354,94.392a282.419,282.419,0,0,0,67.75,8.281v.025a291.9,291.9,0,0,0,68.564-8.33,148.158,148.158,0,0,0-4.486-16.044,208.25,208.25,0,0,0-8.158-20.406C1131.552,167.258,1107.867,135.712,1091.429,121.393Z" transform="translate(-1013.5 -110.5)" fill="#f5333f" fill-rule="evenodd"/>
      <path id="Caminho_2091" data-name="Caminho 2091" d="M1166.93,385.8a53.53,53.53,0,1,0,53.53,53.53A53.532,53.532,0,0,0,1166.93,385.8Z" transform="translate(-1088.779 -317.951)" fill="#323e48" fill-rule="evenodd"/>
      <path id="Caminho_2092" data-name="Caminho 2092" d="M1186.522,411.7a47.122,47.122,0,1,0,47.122,47.122A47.121,47.121,0,0,0,1186.522,411.7Z" transform="translate(-1108.372 -337.468)" fill="#fff" fill-rule="evenodd"/>
      <g id="Grupo_23599" data-name="Grupo 23599" transform="translate(43.793 85.724)">
        <path id="Caminho_2093" data-name="Caminho 2093" d="M1402.667,740.724l-8.626-.074a.642.642,0,0,1-.641-.666v-.443a.642.642,0,0,1,.665-.641l8.626.074a.642.642,0,0,1,.641.665v.444A.692.692,0,0,1,1402.667,740.724Z" transform="translate(-1343.565 -669.753)" fill="#f5333f" fill-rule="evenodd"/>
        <path id="Caminho_2094" data-name="Caminho 2094" d="M1401.463,698.41l-7,5.028a.642.642,0,0,1-.912-.148l-.246-.345a.642.642,0,0,1,.148-.912l7-5.028a.642.642,0,0,1,.912.148l.247.345A.639.639,0,0,1,1401.463,698.41Z" transform="translate(-1343.397 -638.086)" fill="#f5333f" fill-rule="evenodd"/>
        <g id="Grupo_23598" data-name="Grupo 23598">
          <path id="Caminho_2095" data-name="Caminho 2095" d="M1201.5,511.336l43.647-47.442a3.379,3.379,0,0,1,4.756-.2l10.253,9.414a3.379,3.379,0,0,1,.2,4.757L1216.7,525.31a3.379,3.379,0,0,1-4.757.2l-10.252-9.414A3.379,3.379,0,0,1,1201.5,511.336Z" transform="translate(-1198.291 -461.708)" fill="#f5333f" fill-rule="evenodd"/>
          <path id="Caminho_2096" data-name="Caminho 2096" d="M1272.2,575.5l39.95-43.4,7.714,10.918a4.5,4.5,0,0,1-.37,5.619l-30.215,32.828a4.5,4.5,0,0,1-5.57.838Z" transform="translate(-1252.235 -513.919)" fill="#f5333f" fill-rule="evenodd"/>
          <path id="Caminho_2097" data-name="Caminho 2097" d="M1287.9,586.769l35.588-38.669,4.757,7.788a3.951,3.951,0,0,1-.887,4.485l-26.913,29.254c-1.281,1.38-3.105,1.922-4.387,1.257Z" transform="translate(-1264.066 -525.976)" fill="#fff" fill-rule="evenodd"/>
          <path id="Caminho_2098" data-name="Caminho 2098" d="M1191.76,602.073l2.539-2.76a2.106,2.106,0,0,1,2.982-.123l8.6,7.911a2.106,2.106,0,0,1,.123,2.982l-2.539,2.76a2.106,2.106,0,0,1-2.982.123l-8.6-7.911A2.085,2.085,0,0,1,1191.76,602.073Z" transform="translate(-1191.191 -564.053)" fill="#f5333f" fill-rule="evenodd"/>
          <path id="Caminho_2099" data-name="Caminho 2099" d="M1319.79,461.773l2.539-2.76a2.106,2.106,0,0,1,2.982-.123l8.6,7.911a2.106,2.106,0,0,1,.123,2.982l-2.538,2.76a2.107,2.107,0,0,1-2.982.123l-8.6-7.911A2.105,2.105,0,0,1,1319.79,461.773Z" transform="translate(-1287.675 -458.331)" fill="#f5333f" fill-rule="evenodd"/>
          <path id="Caminho_2100" data-name="Caminho 2100" d="M1236.7,647.62a6.683,6.683,0,1,0-4.535-5.866A6.689,6.689,0,0,0,1236.7,647.62Z" transform="translate(-1222.058 -591.165)" fill="#fff" fill-rule="evenodd"/>
          <path id="Caminho_2101" data-name="Caminho 2101" d="M1369.557,495.252a6.683,6.683,0,1,0,4.535,5.866A6.6,6.6,0,0,0,1369.557,495.252Z" transform="translate(-1318.958 -485.895)" fill="#fff" fill-rule="evenodd"/>
        </g>
      </g>
    </g>
  </g>
</svg>
