<svg id="logo_menor" xmlns="http://www.w3.org/2000/svg" width="45.289" height="50.833" viewBox="0 0 45.289 50.833">
  <path id="Caminho_2087" data-name="Caminho 2087" d="M1106.483,199.8H1072.6a1.5,1.5,0,0,0-1.5,1.5v29.538a1.5,1.5,0,0,0,1.5,1.5h33.879a1.5,1.5,0,0,0,1.5-1.5V201.311A1.51,1.51,0,0,0,1106.483,199.8Z" transform="translate(-1066.974 -193.404)" fill="#323e48" fill-rule="evenodd"/>
  <path id="Caminho_2088" data-name="Caminho 2088" d="M1054.53,132.5l-.136.115c-6.8,5.5-18.544,22.154-21.094,36.035a83.809,83.809,0,0,0,42.467,0c-2.55-13.881-14.289-30.534-21.094-36.035Z" transform="translate(-1031.882 -130.924)" fill="#fff" fill-rule="evenodd"/>
  <path id="Caminho_2089" data-name="Caminho 2089" d="M1284.8,216.838l.8-9.5h4.828l.8,9.5Zm5.264-13.5h-4.1l.509-5.809,3.123.036.473,5.773Zm-1.089-13.136h-1.92l-.365,4.1h2.65Z" transform="translate(-1265.368 -184.491)" fill="#201d1e" fill-rule="evenodd"/>
  <path id="Caminho_2090" data-name="Caminho 2090" d="M1035.231,111.238l.136-.115.774-.623.774.623.136.115h0c5.014,4.054,12.62,13.974,17.441,24.467a64.42,64.42,0,0,1,2.471,6.174,45.07,45.07,0,0,1,1.619,6.124v.014l.208,1.125-1.1.279a87.717,87.717,0,0,1-21.66,2.765v.007a84.562,84.562,0,0,1-21.423-2.779l-1.1-.286.208-1.117c1.877-10.214,8.581-21.846,14.769-29.639,1.2-1.518,2.392-2.894,3.531-4.09a32.918,32.918,0,0,1,3.223-3.044Zm.917,2.428c-.738.645-1.533,1.411-2.364,2.292-1.082,1.139-2.22,2.464-3.388,3.932-5.766,7.263-11.99,17.928-14.053,27.433a82.077,82.077,0,0,0,19.69,2.407v.007a84.834,84.834,0,0,0,19.926-2.421,43.057,43.057,0,0,0-1.3-4.663,60.475,60.475,0,0,0-2.371-5.931C1047.809,127,1040.926,117.827,1036.148,113.666Z" transform="translate(-1013.5 -110.5)" fill="#f5333f" fill-rule="evenodd"/>
  <path id="Caminho_2091" data-name="Caminho 2091" d="M1128.957,385.8a15.557,15.557,0,1,0,15.557,15.557A15.558,15.558,0,0,0,1128.957,385.8Z" transform="translate(-1106.245 -366.081)" fill="#323e48" fill-rule="evenodd"/>
  <path id="Caminho_2092" data-name="Caminho 2092" d="M1153.095,411.7a13.695,13.695,0,1,0,13.695,13.695A13.695,13.695,0,0,0,1153.095,411.7Z" transform="translate(-1130.382 -390.126)" fill="#fff" fill-rule="evenodd"/>
  <g id="Grupo_23599" data-name="Grupo 23599" transform="translate(12.727 24.914)">
    <path id="Caminho_2093" data-name="Caminho 2093" d="M1396.093,739.43l-2.507-.021a.187.187,0,0,1-.186-.193v-.129a.187.187,0,0,1,.193-.186l2.507.021a.187.187,0,0,1,.186.193v.129A.2.2,0,0,1,1396.093,739.43Z" transform="translate(-1378.917 -718.804)" fill="#f5333f" fill-rule="evenodd"/>
    <path id="Caminho_2094" data-name="Caminho 2094" d="M1395.585,697.322l-2.034,1.461a.187.187,0,0,1-.265-.043l-.072-.1a.187.187,0,0,1,.043-.265l2.034-1.461a.187.187,0,0,1,.265.043l.072.1A.185.185,0,0,1,1395.585,697.322Z" transform="translate(-1378.709 -679.791)" fill="#f5333f" fill-rule="evenodd"/>
    <g id="Grupo_23598" data-name="Grupo 23598">
      <path id="Caminho_2095" data-name="Caminho 2095" d="M1200.869,476.915l12.685-13.788a.982.982,0,0,1,1.382-.057l2.979,2.736a.982.982,0,0,1,.057,1.382l-12.685,13.788a.982.982,0,0,1-1.383.057l-2.979-2.736A.982.982,0,0,1,1200.869,476.915Z" transform="translate(-1199.938 -462.491)" fill="#f5333f" fill-rule="evenodd"/>
      <path id="Caminho_2096" data-name="Caminho 2096" d="M1272.2,544.713l11.611-12.613,2.242,3.173a1.306,1.306,0,0,1-.108,1.633l-8.781,9.541a1.307,1.307,0,0,1-1.619.244Z" transform="translate(-1266.398 -526.816)" fill="#f5333f" fill-rule="evenodd"/>
      <path id="Caminho_2097" data-name="Caminho 2097" d="M1287.9,559.338l10.343-11.238,1.382,2.263a1.148,1.148,0,0,1-.258,1.3l-7.822,8.5a1.126,1.126,0,0,1-1.275.365Z" transform="translate(-1280.973 -541.67)" fill="#fff" fill-rule="evenodd"/>
      <path id="Caminho_2098" data-name="Caminho 2098" d="M1191.357,599.631l.738-.8a.612.612,0,0,1,.867-.036l2.5,2.3a.612.612,0,0,1,.036.867l-.738.8a.612.612,0,0,1-.867.036l-2.5-2.3A.606.606,0,0,1,1191.357,599.631Z" transform="translate(-1191.191 -588.582)" fill="#f5333f" fill-rule="evenodd"/>
      <path id="Caminho_2099" data-name="Caminho 2099" d="M1319.393,459.331l.738-.8a.612.612,0,0,1,.867-.036l2.5,2.3a.612.612,0,0,1,.036.867l-.738.8a.612.612,0,0,1-.867.036l-2.5-2.3A.612.612,0,0,1,1319.393,459.331Z" transform="translate(-1310.06 -458.331)" fill="#f5333f" fill-rule="evenodd"/>
      <path id="Caminho_2100" data-name="Caminho 2100" d="M1233.474,638.391a1.942,1.942,0,1,0-1.318-1.7A1.944,1.944,0,0,0,1233.474,638.391Z" transform="translate(-1229.219 -621.984)" fill="#fff" fill-rule="evenodd"/>
      <path id="Caminho_2101" data-name="Caminho 2101" d="M1363.305,495.009a1.942,1.942,0,1,0,1.318,1.7A1.919,1.919,0,0,0,1363.305,495.009Z" transform="translate(-1348.6 -492.29)" fill="#fff" fill-rule="evenodd"/>
    </g>
  </g>
</svg>
